<?xml version="1.0" encoding="UTF-8" standalone="no"?><!DOCTYPE svg PUBLIC "-//W3C//DTD SVG 1.1//EN" "http://www.w3.org/Graphics/SVG/1.1/DTD/svg11.dtd"><svg width="100%" height="100%" viewBox="0 0 882 717" version="1.1" xmlns="http://www.w3.org/2000/svg" xmlns:xlink="http://www.w3.org/1999/xlink" xml:space="preserve" xmlns:serif="http://www.serif.com/" style="fill-rule:evenodd;clip-rule:evenodd;stroke-linecap:round;stroke-linejoin:round;stroke-miterlimit:1.5;"><g id="bunny1"><path d="M536.94,583.147c-0,-11.52 -9.048,-20.873 -20.193,-20.873l-40.384,0c-11.145,0 -36.495,-2.849 -36.495,8.671c0,0 12.693,75.223 16.059,95.168c1.63,9.663 11.545,22.208 21.682,28.325c10.137,6.118 39.138,8.378 39.138,8.378c11.145,-0 20.193,-9.353 20.193,-20.873l-0,-98.796Z" style="fill:#f4afc2;stroke:#5e2b39;stroke-width:18.97px;"/><g><path d="M467.908,577.418c-15.781,-4.488 -32.828,-2.947 -51.302,8.131l-93.843,56.274c14.812,9.817 43.801,39.482 16.238,53.298c-7.231,3.624 -14.786,6.949 -22.722,8.512c-42.067,8.289 -76.88,-9.141 -110.252,-32.729c-8.382,-2.675 -15.51,-8.472 -22.458,-13.87c-37.3,-28.986 -61.767,-69.969 -71.061,-116.209c-58.891,11.629 -108.254,-68.566 -100.297,-119.959c1.405,-9.071 3.176,-18.456 7.712,-26.438c18.075,-31.81 57.873,-24.998 82.284,-5.921c7.507,5.867 14.321,12.723 20.213,20.21c10.279,-29.386 30.055,-57.775 52.609,-78.981c70.356,-66.149 156.934,-101.683 253.036,-77.319c34.849,8.834 63.831,28.509 99.629,34.681c11.082,1.911 31.974,3.132 42.28,-3.332c10.688,-6.703 19.102,-16.572 27.606,-25.89c25.04,-27.434 -19.213,-66.222 -31.061,-84.351c-14.198,-21.725 -28.801,-53.471 -36.143,-78.112c-6.082,-20.411 -15.861,-74.717 14.33,-84.788c12.467,-4.158 36.65,14.582 44.182,19.886c35.282,24.844 60.713,50.711 81.453,88.942c10.613,19.563 14.453,45.97 28.174,63.183c7.981,10.012 36,14.158 40.654,15.635c25.656,8.142 54.791,15.407 73.041,36.859c11.858,13.938 21.582,29.559 32.415,44.309c5.587,7.607 20.105,25.222 23.406,35.751c7.065,22.536 -4.778,52.971 -18.372,70.498c-6.367,8.209 -14.505,15.063 -23.036,20.992c-8.529,5.927 -18.051,10.428 -27.703,14.267c-11.964,4.759 -31.501,4.931 -42.207,13.587c-8.78,7.098 -10.477,23.897 -14.965,32.957c-8.774,17.713 -16.234,36.485 -28.425,52.045c-22.257,28.409 -56.615,45.822 -78.652,74.401c-16.442,21.322 8.965,53.677 16.526,70.483c4.715,10.48 8.289,16.5 -0.912,25.639c-13.543,13.454 -44.439,12.055 -59.504,5.619c-7.045,-3.01 -11.438,-10.23 -16.64,-15.854c-11.284,-12.2 -23.618,-29.269 -37.238,-46.093c-19.986,-24.687 -42.737,-48.845 -68.995,-56.313Z" style="fill:#efdcde;"/><clipPath id="_clip1"><path d="M467.908,577.418c-15.781,-4.488 -32.828,-2.947 -51.302,8.131l-93.843,56.274c14.812,9.817 43.801,39.482 16.238,53.298c-7.231,3.624 -14.786,6.949 -22.722,8.512c-42.067,8.289 -76.88,-9.141 -110.252,-32.729c-8.382,-2.675 -15.51,-8.472 -22.458,-13.87c-37.3,-28.986 -61.767,-69.969 -71.061,-116.209c-58.891,11.629 -108.254,-68.566 -100.297,-119.959c1.405,-9.071 3.176,-18.456 7.712,-26.438c18.075,-31.81 57.873,-24.998 82.284,-5.921c7.507,5.867 14.321,12.723 20.213,20.21c10.279,-29.386 30.055,-57.775 52.609,-78.981c70.356,-66.149 156.934,-101.683 253.036,-77.319c34.849,8.834 63.831,28.509 99.629,34.681c11.082,1.911 31.974,3.132 42.28,-3.332c10.688,-6.703 19.102,-16.572 27.606,-25.89c25.04,-27.434 -19.213,-66.222 -31.061,-84.351c-14.198,-21.725 -28.801,-53.471 -36.143,-78.112c-6.082,-20.411 -15.861,-74.717 14.33,-84.788c12.467,-4.158 36.65,14.582 44.182,19.886c35.282,24.844 60.713,50.711 81.453,88.942c10.613,19.563 14.453,45.97 28.174,63.183c7.981,10.012 36,14.158 40.654,15.635c25.656,8.142 54.791,15.407 73.041,36.859c11.858,13.938 21.582,29.559 32.415,44.309c5.587,7.607 20.105,25.222 23.406,35.751c7.065,22.536 -4.778,52.971 -18.372,70.498c-6.367,8.209 -14.505,15.063 -23.036,20.992c-8.529,5.927 -18.051,10.428 -27.703,14.267c-11.964,4.759 -31.501,4.931 -42.207,13.587c-8.78,7.098 -10.477,23.897 -14.965,32.957c-8.774,17.713 -16.234,36.485 -28.425,52.045c-22.257,28.409 -56.615,45.822 -78.652,74.401c-16.442,21.322 8.965,53.677 16.526,70.483c4.715,10.48 8.289,16.5 -0.912,25.639c-13.543,13.454 -44.439,12.055 -59.504,5.619c-7.045,-3.01 -11.438,-10.23 -16.64,-15.854c-11.284,-12.2 -23.618,-29.269 -37.238,-46.093c-19.986,-24.687 -42.737,-48.845 -68.995,-56.313Z"/></clipPath><g clip-path="url(#_clip1)"><path d="M127.397,392.407l-3.922,192.181c-0.858,-3.539 -1.645,-7.101 -2.361,-10.684c-0.958,-4.791 -5.527,-7.972 -10.353,-7.207c-43.844,6.947 -83.283,-17.493 -110.348,-51.787c-27.383,-34.697 -42.43,-79.75 -35.743,-114.675c2.29,-11.958 4.944,-24.381 11.762,-34.804c12.991,-19.862 33.392,-27.15 54.631,-26.576c22.523,0.609 46.017,9.839 63.773,23.001c11.214,8.313 21.347,17.966 30.068,28.46c0.71,0.854 1.557,1.557 2.493,2.091Z" style="fill:#f4afc2;"/></g><path d="M467.908,577.418c-15.781,-4.488 -32.828,-2.947 -51.302,8.131l-93.843,56.274c14.812,9.817 43.801,39.482 16.238,53.298c-7.231,3.624 -14.786,6.949 -22.722,8.512c-42.067,8.289 -76.88,-9.141 -110.252,-32.729c-8.382,-2.675 -15.51,-8.472 -22.458,-13.87c-37.3,-28.986 -61.767,-69.969 -71.061,-116.209c-58.891,11.629 -108.254,-68.566 -100.297,-119.959c1.405,-9.071 3.176,-18.456 7.712,-26.438c18.075,-31.81 57.873,-24.998 82.284,-5.921c7.507,5.867 14.321,12.723 20.213,20.21c10.279,-29.386 30.055,-57.775 52.609,-78.981c70.356,-66.149 156.934,-101.683 253.036,-77.319c34.849,8.834 63.831,28.509 99.629,34.681c11.082,1.911 31.974,3.132 42.28,-3.332c10.688,-6.703 19.102,-16.572 27.606,-25.89c25.04,-27.434 -19.213,-66.222 -31.061,-84.351c-14.198,-21.725 -28.801,-53.471 -36.143,-78.112c-6.082,-20.411 -15.861,-74.717 14.33,-84.788c12.467,-4.158 36.65,14.582 44.182,19.886c35.282,24.844 60.713,50.711 81.453,88.942c10.613,19.563 14.453,45.97 28.174,63.183c7.981,10.012 36,14.158 40.654,15.635c25.656,8.142 54.791,15.407 73.041,36.859c11.858,13.938 21.582,29.559 32.415,44.309c5.587,7.607 20.105,25.222 23.406,35.751c7.065,22.536 -4.778,52.971 -18.372,70.498c-6.367,8.209 -14.505,15.063 -23.036,20.992c-8.529,5.927 -18.051,10.428 -27.703,14.267c-11.964,4.759 -31.501,4.931 -42.207,13.587c-8.78,7.098 -10.477,23.897 -14.965,32.957c-8.774,17.713 -16.234,36.485 -28.425,52.045c-22.257,28.409 -56.615,45.822 -78.652,74.401c-16.442,21.322 8.965,53.677 16.526,70.483c4.715,10.48 8.289,16.5 -0.912,25.639c-13.543,13.454 -44.439,12.055 -59.504,5.619c-7.045,-3.01 -11.438,-10.23 -16.64,-15.854c-11.284,-12.2 -23.618,-29.269 -37.238,-46.093c-19.986,-24.687 -42.737,-48.845 -68.995,-56.313Z" style="fill:none;stroke:#5e2b39;stroke-width:18.97px;"/></g><path d="M846.713,301.996c0.09,0.124 -6.824,-9.14 -6.734,-9.017c3.793,5.159 16.08,20.676 18.062,27.893c3.689,13.434 1.785,19.462 -4.79,30.023l-6.538,-48.899Z" style="fill:#f4afc2;"/><path d="M725.868,320.189l-19.632,30.578" style="fill:none;stroke:#c65574;stroke-width:10.31px;"/><path d="M702.993,309.188l-13.897,21.645" style="fill:none;stroke:#c65574;stroke-width:10.31px;"/><g><path d="M730.227,484.589l20.647,22.158" style="fill:none;stroke:#5e2b39;stroke-width:10.31px;"/><path d="M732.738,476.869l27.564,9.769" style="fill:none;stroke:#5e2b39;stroke-width:10.31px;"/></g><g><path d="M153.234,632.13l-23.968,18.515" style="fill:none;stroke:#5e2b39;stroke-width:10.31px;"/><path d="M160.69,635.343l-12.271,26.545" style="fill:none;stroke:#5e2b39;stroke-width:10.31px;"/></g><g><path d="M166.813,326.452l-20.008,-22.737" style="fill:none;stroke:#5e2b39;stroke-width:10.31px;"/><path d="M164.084,334.097l-27.276,-10.549" style="fill:none;stroke:#5e2b39;stroke-width:10.31px;"/></g><g><path d="M384.207,241.349l4.376,-29.969" style="fill:none;stroke:#5e2b39;stroke-width:10.31px;"/><path d="M376.612,244.218l-9.616,-27.618" style="fill:none;stroke:#5e2b39;stroke-width:10.31px;"/></g><path d="M707.234,283.68c23.193,-0.462 42.398,17.968 42.86,41.131c0.462,23.163 -17.992,42.345 -41.185,42.807c-23.194,0.463 -42.399,-17.967 -42.861,-41.13c-0.462,-23.164 17.993,-42.345 41.186,-42.808Z" style="fill:#ea688c;"/><path d="M775.148,296.639c-22.568,-23.764 -44.352,-1.205 -44.352,-1.205" style="fill:none;stroke:#5e2b39;stroke-width:18.97px;"/><path d="M553.259,38.481c6.534,3.89 16.43,9.835 19.289,11.848c31.486,22.172 54.319,45.131 72.828,79.25c5.813,10.714 9.201,23.756 13.847,35.807c2.142,5.557 4.495,10.95 7.161,16.058l-41.985,19.976c-0.94,-1.839 -1.945,-3.668 -3.012,-5.484c-9.646,-16.42 -24.731,-31.786 -31.02,-41.41c-12.845,-19.656 -26.051,-48.38 -32.694,-70.674c-2.447,-8.211 -5.726,-23.229 -5.268,-37.219c0.092,-2.805 0.332,-5.561 0.854,-8.152Z" style="fill:#f4afc2;"/></g></svg>